<?xml version="1.0" encoding="UTF-8"?>
<svg version="1.1" xmlns="http://www.w3.org/2000/svg" width="1008" height="648">
<path d="M0 0 C332.64 0 665.28 0 1008 0 C1008 213.84 1008 427.68 1008 648 C675.36 648 342.72 648 0 648 C0 434.16 0 220.32 0 0 Z " fill="#FEFEFE" transform="translate(0,0)"/>
<path d="M0 0 C1.25490234 -0.00773437 2.50980469 -0.01546875 3.80273438 -0.0234375 C14.2901336 -0.00157737 23.93465004 1.17267392 33.75 4.9375 C34.42973877 5.19515137 35.10947754 5.45280273 35.80981445 5.71826172 C41.73520003 8.07097801 46.73141845 11.23749775 51.6875 15.25 C52.52152344 15.889375 53.35554687 16.52875 54.21484375 17.1875 C65.63704526 26.71502354 71.91226244 40.92550457 74.6875 55.25 C74.85997757 55.97607956 75.03245514 56.70215912 75.2101593 57.45024109 C75.79689401 60.89163153 75.82264047 64.17518466 75.83276367 67.66723633 C75.83612228 68.39638748 75.8394809 69.12553864 75.84294128 69.87678528 C75.85241147 72.27855145 75.8543925 74.68024759 75.85546875 77.08203125 C75.85868436 78.7596591 75.86204866 80.43728667 75.86555481 82.11491394 C75.87153646 85.62943166 75.87339573 89.14392482 75.87280273 92.65844727 C75.87270124 97.1471973 75.886345 101.63578873 75.90357494 106.12450123 C75.91473076 109.58962213 75.91672083 113.05470513 75.91619301 116.51984215 C75.91736805 118.17393222 75.92176294 119.82802344 75.92952538 121.48209572 C75.93939666 123.80303458 75.93641925 126.12363498 75.93041992 128.44458008 C75.93184494 129.761866 75.93326996 131.07915192 75.93473816 132.43635559 C74.84160495 149.29791679 66.91486681 166.61667531 54.6875 178.25 C34.17622826 195.04494376 9.7667506 197.39275441 -15.83691406 195.015625 C-23.08668818 193.99481382 -29.87787233 191.70846533 -36.3125 188.25 C-37.50939453 187.61964844 -37.50939453 187.61964844 -38.73046875 186.9765625 C-53.02792589 178.95225322 -64.86013555 166.35318005 -69.47265625 150.41015625 C-72.80000339 138.01669824 -73.49408397 126.13170229 -73.5859375 113.3203125 C-73.59126118 112.61526455 -73.59658485 111.9102166 -73.60206985 111.18380356 C-73.62863367 107.44546354 -73.64805352 103.70715484 -73.66259766 99.96875 C-73.67585924 96.92384286 -73.70359026 93.87961822 -73.74462891 90.83496094 C-74.08608381 64.89353706 -73.53738993 40.27069033 -54.49609375 20.39453125 C-44.95546525 11.02457589 -35.31128518 5.6625689 -22.3125 2.25 C-21.15621094 1.8890625 -19.99992188 1.528125 -18.80859375 1.15625 C-12.64852784 -0.36391901 -6.30277027 -0.0384902 0 0 Z " fill="#010101" transform="translate(557.3125,76.75)"/>
<path d="M0 0 C13.86 0 27.72 0 42 0 C42 23.76 42 47.52 42 72 C75.99 72 109.98 72 145 72 C145 84.87 145 97.74 145 111 C111.01 111 77.02 111 42 111 C42.09060577 138.83796631 42.09060577 138.83796631 42.20898438 166.67578125 C42.26343769 178.03074676 42.31485215 189.38566742 42.34643555 200.74072266 C42.3694534 209.01118839 42.40289364 217.28153609 42.44870156 225.55190814 C42.47258278 229.92853761 42.49134492 234.30505054 42.49761391 238.68174362 C42.50368792 242.80713031 42.52377081 246.93221902 42.55427551 251.05749512 C42.56301877 252.56585237 42.56678607 254.07424862 42.56500816 255.58263016 C42.48850082 269.79015496 42.48850082 269.79015496 48.3125 282.4375 C57.70138224 291.38969004 70.9646632 290.3266687 83.06640625 290.4140625 C84.71265099 290.43280003 86.35888638 290.45237532 88.00511169 290.4727478 C92.31054138 290.52380223 96.61600212 290.56356972 100.92156982 290.60089111 C106.10221596 290.64818491 111.28271128 290.70966703 116.46323395 290.76873779 C124.30876085 290.85662421 132.15426363 290.92662122 140 291 C140 303.54 140 316.08 140 329 C120.25755274 329.16043524 120.25755274 329.16043524 111.73046875 329.1953125 C105.95085647 329.21906565 100.17150171 329.24691812 94.39208984 329.30175781 C89.72360318 329.34577023 85.05539333 329.36925166 80.38671494 329.37950897 C78.62083463 329.38680241 76.85496649 329.40103869 75.0892067 329.42292023 C54.0717853 329.67260275 35.2872008 326.23948697 19 312 C18.38511719 311.47921875 17.77023437 310.9584375 17.13671875 310.421875 C6.19442191 300.42580782 1.78569956 286.328006 0 272 C-0.09516058 269.68336566 -0.14554869 267.36458912 -0.15821838 265.04603577 C-0.16562535 264.05088641 -0.16562535 264.05088641 -0.17318195 263.03563303 C-0.18843071 260.8324328 -0.19688295 258.6292614 -0.20532227 256.42602539 C-0.21491074 254.83880362 -0.22492138 253.25158434 -0.23532104 251.66436768 C-0.26227115 247.36948069 -0.28333405 243.07458282 -0.30332303 238.77965856 C-0.32524387 234.28598266 -0.35260263 229.79233991 -0.37937927 225.2986908 C-0.4292239 216.79556834 -0.47419315 208.2924274 -0.51740164 199.78926891 C-0.57609431 188.29453444 -0.64233682 176.79984361 -0.70815182 165.30514812 C-0.81159771 147.20346153 -0.90497245 129.10173728 -1 111 C-24.76 110.67 -48.52 110.34 -73 110 C-73 97.46 -73 84.92 -73 72 C-48.91 72 -24.82 72 0 72 C0 48.24 0 24.48 0 0 Z " fill="#2EEBEB" transform="translate(417,289)"/>
<path d="M0 0 C0.98581558 -0.00655609 0.98581558 -0.00655609 1.99154663 -0.01324463 C35.50804871 -0.17446487 63.05072802 4.99215968 88.06640625 29.10546875 C89.734375 30.7578125 89.734375 30.7578125 90.87890625 32.16796875 C90.87890625 32.82796875 90.87890625 33.48796875 90.87890625 34.16796875 C91.53890625 34.16796875 92.19890625 34.16796875 92.87890625 34.16796875 C104.83356333 50.13443643 109.87890625 68.39168703 109.87890625 88.16796875 C96.01890625 88.16796875 82.15890625 88.16796875 67.87890625 88.16796875 C66.88890625 82.55796875 65.89890625 76.94796875 64.87890625 71.16796875 C61.52916053 63.47596007 58.98529501 57.84922918 52.87890625 52.16796875 C52.34007812 51.63171875 51.80125 51.09546875 51.24609375 50.54296875 C40.53106674 40.66943601 25.77876562 37.59358055 11.62890625 37.73046875 C10.53570068 37.73731689 9.44249512 37.74416504 8.31616211 37.7512207 C-0.37292368 37.92282999 -7.95623786 39.02604952 -16.12109375 42.16796875 C-17.03632813 42.51859375 -17.9515625 42.86921875 -18.89453125 43.23046875 C-31.1605899 48.66527628 -40.20651239 59.19786902 -45.18075562 71.51512146 C-49.44951483 83.55798762 -49.5676279 95.4386107 -49.51953125 108.0390625 C-49.52155846 109.93368135 -49.52447523 111.82829943 -49.52822876 113.72291565 C-49.53262281 117.67220572 -49.52631679 121.62129065 -49.51220703 125.57055664 C-49.49512884 130.59093563 -49.50496652 135.61083279 -49.52292442 140.63119411 C-49.53385187 144.53753682 -49.53027501 148.44376846 -49.52254105 152.35011482 C-49.52056308 154.19937258 -49.52291204 156.04864097 -49.52997971 157.89788628 C-49.59385278 179.30129558 -46.75066446 197.76325658 -31.47265625 213.91015625 C-17.82913597 226.75503144 0.17930235 227.9148989 17.875 227.51953125 C32.24976729 226.89736321 44.06064507 221.55459237 54.515625 211.75 C63.77250718 201.63628245 66.40587047 190.42529075 67.87890625 177.16796875 C81.73890625 177.16796875 95.59890625 177.16796875 109.87890625 177.16796875 C109.87890625 200.87014591 102.34161816 221.35811921 85.65234375 238.453125 C73.34995517 250.49560396 59.26518086 257.408791 42.87890625 262.16796875 C41.68974609 262.51988281 41.68974609 262.51988281 40.4765625 262.87890625 C30.98588829 265.47239742 21.20002238 265.38271303 11.44262695 265.40820312 C9.21331955 265.41787369 6.98495029 265.44896564 4.75585938 265.48046875 C-4.62707303 265.54939492 -13.00677903 264.58289112 -22.12109375 262.16796875 C-23.82616089 261.71744141 -23.82616089 261.71744141 -25.56567383 261.2578125 C-38.49355905 257.70432268 -49.63122429 251.41505467 -60.12109375 243.16796875 C-61.66796875 242.02328125 -61.66796875 242.02328125 -63.24609375 240.85546875 C-74.53865216 230.29938154 -82.60488625 216.9062264 -87.12109375 202.16796875 C-87.39566406 201.35714844 -87.67023438 200.54632812 -87.953125 199.7109375 C-92.6322495 184.70546929 -92.4435712 168.28320564 -92.45703125 152.7109375 C-92.46349049 150.90749517 -92.47022089 149.10405379 -92.47720337 147.3006134 C-92.48905446 143.5518654 -92.49289673 139.80320871 -92.49169922 136.05444336 C-92.49153659 132.26030432 -92.50545892 128.46664772 -92.53271484 124.67260742 C-92.8231146 83.65397043 -92.8231146 83.65397043 -88.12109375 66.16796875 C-87.79979492 64.96043945 -87.47849609 63.75291016 -87.14746094 62.50878906 C-80.6086642 39.87800593 -64.27784875 22.46461166 -44.12109375 11.16796875 C-30.51278825 4.21740728 -15.31580636 0.09546076 0 0 Z " fill="#2EEBEB" transform="translate(170.12109375,356.83203125)"/>
<path d="M0 0 C42.24 0 84.48 0 128 0 C128.03867187 29.69419922 128.03867187 29.69419922 128.078125 59.98828125 C128.10328607 72.51628532 128.1294257 85.04427581 128.16015625 97.57226562 C128.17624783 104.15340099 128.19209122 110.73453688 128.20751953 117.31567383 C128.20946347 118.14047865 128.21140741 118.96528347 128.21341026 119.81508237 C128.2444061 133.11992151 128.26139854 146.42474341 128.27319422 159.72961185 C128.28561809 173.39043396 128.31314734 187.05116581 128.35461307 200.71193093 C128.37971315 209.13707807 128.39311983 217.56207548 128.39142957 225.98726054 C128.39139975 231.76969328 128.4060813 237.55197383 128.43216428 243.33434723 C128.44676989 246.66744317 128.45286307 249.99996578 128.44580269 253.33312607 C128.43915283 256.95547315 128.45710919 260.57691679 128.48101807 264.19917297 C128.47325765 265.24103345 128.46549723 266.28289392 128.45750165 267.35632592 C128.5785092 277.75056541 131.59568671 287.4585698 139 295 C149.46722393 303.84299953 163.70100423 302.33323241 176.5703125 302.4140625 C178.46174949 302.43279854 180.35317833 302.45237372 182.24459839 302.4727478 C187.19282199 302.52381788 192.14107261 302.56357721 197.0894165 302.60089111 C203.04266188 302.64817234 208.99577581 302.70966137 214.94891357 302.76873779 C223.96588858 302.85664331 232.98284232 302.92662698 242 303 C242 315.54 242 328.08 242 341 C230.16791972 341.09084667 218.3360761 341.16402851 206.5037241 341.20724869 C201.00780198 341.22800599 195.51213358 341.25610363 190.01635742 341.30175781 C184.69949332 341.34564267 179.3828712 341.36922592 174.06583977 341.37950897 C172.05073176 341.38682461 170.03563501 341.40110695 168.02063179 341.42292023 C144.33107608 341.66886094 123.47570705 337.07314681 105.45703125 320.6875 C90.08707978 304.60328228 85.80849547 285.39531141 85.87974548 263.71772766 C85.87889106 262.74461063 85.87803663 261.7714936 85.87715632 260.76888818 C85.87552269 257.5416255 85.88098787 254.31441601 85.88647461 251.0871582 C85.88675696 248.76044211 85.8865978 246.43372593 85.8860321 244.10700989 C85.88574602 237.81446567 85.89161224 231.52194064 85.89860606 225.22940087 C85.90487103 218.64440525 85.90544588 212.05940915 85.90663147 205.47441101 C85.90921667 194.42963327 85.91562302 183.38486222 85.92456055 172.34008789 C85.93375277 160.96866897 85.94082473 149.59725196 85.94506836 138.22583008 C85.94533108 137.52378908 85.94559381 136.82174808 85.94586449 136.09843311 C85.94716962 132.57616929 85.9484333 129.05390545 85.94967639 125.5316416 C85.96002725 96.3544224 85.97845379 67.17721334 86 38 C57.62 38 29.24 38 0 38 C0 25.46 0 12.92 0 0 Z " fill="#2DEBEB" transform="translate(613,277)"/>
<path d="M0 0 C10.23 0 20.46 0 31 0 C31 46.53 31 93.06 31 141 C65.27526505 144.29787869 65.27526505 144.29787869 75.0625 133 C76.08790704 130.78221351 77.11285216 128.56090864 78.00097656 126.28466797 C79.73455052 122.32015549 82.36429033 119.01649429 84.9375 115.5625 C85.95030002 114.13933433 86.95941464 112.7135388 87.96484375 111.28515625 C88.71677002 110.22385498 88.71677002 110.22385498 89.48388672 109.14111328 C91.99343933 105.5970269 94.49633846 102.04824908 97 98.5 C97.99478544 97.09114144 98.98957711 95.68228728 99.984375 94.2734375 C102.03861226 91.36349124 104.09038486 88.45182622 106.140625 85.5390625 C106.66140625 84.79978516 107.1821875 84.06050781 107.71875 83.29882812 C108.69338715 81.91519145 109.66741331 80.53112404 110.640625 79.14648438 C111.57033333 77.82719656 112.51756866 76.52011462 113.48046875 75.22485352 C115.10554189 72.94806401 115.10554189 72.94806401 116.48828125 70.07006836 C120.65179233 62.70153103 120.65179233 62.70153103 124.8873291 61.43615723 C130.41516381 60.6243329 135.94471497 60.99818215 141.5 61.3125 C143.19775804 61.36774194 144.89568882 61.41792078 146.59375 61.46289062 C150.73346485 61.58349214 154.86481904 61.77284462 159 62 C155.12331648 67.90412959 151.10921611 73.67641509 146.9375 79.375 C142.3503796 85.6796482 137.87740505 92.0481087 133.5 98.5 C128.72191043 105.53760783 123.81966698 112.46960669 118.82006836 119.35131836 C113.56163626 126.58993988 108.38294946 133.8813652 103.26123047 141.21728516 C102.14768628 142.79124947 101.00012608 144.34102873 99.84765625 145.88671875 C99.27917969 146.66660156 98.71070313 147.44648438 98.125 148.25 C97.65320313 148.87390625 97.18140625 149.4978125 96.6953125 150.140625 C95.79188313 152.02823364 95.79188313 152.02823364 96.5234375 154.1796875 C98.6378435 158.21831484 101.04053286 162.03885963 103.5 165.875 C104.03971436 166.72288086 104.57942871 167.57076172 105.13549805 168.44433594 C108.69532368 174.01714885 112.3210904 179.54211557 116.0090332 185.03076172 C121.77080472 193.61202768 127.3803326 202.29354718 133.01806641 210.95654297 C135.65659553 215.00826803 138.30049408 219.05647674 140.94433594 223.10473633 C143.41356868 226.8875834 145.87862187 230.67314382 148.34326172 234.45898438 C149.87187985 236.80349623 151.40595442 239.14433581 152.94140625 241.484375 C153.77365683 242.76027363 154.60570677 244.03630317 155.4375 245.3125 C156.13746094 246.38113281 156.83742187 247.44976562 157.55859375 248.55078125 C159 251 159 251 159 253 C128.39352699 256.13516783 128.39352699 256.13516783 120.26074219 251.40771484 C115.94793516 247.02292338 113.68176782 241.56464994 111.34033203 235.95117188 C109.01489083 230.83096545 105.77926909 226.32542908 102.625 221.6875 C101.35656587 219.75268902 100.09226179 217.81516434 98.83203125 215.875 C98.20119629 214.90820312 97.57036133 213.94140625 96.92041016 212.9453125 C94.34997053 209.00305677 91.78225817 205.0590659 89.22363281 201.10913086 C87.9546339 199.16915769 86.66886244 197.24004808 85.36621094 195.32250977 C81.85351034 190.11525136 78.97717864 185.17113202 76.84985352 179.24584961 C74.85639476 175.44447517 74.85639476 175.44447517 68 169 C55.79 168.67 43.58 168.34 31 168 C31 196.05 31 224.1 31 253 C20.77 253 10.54 253 0 253 C0 169.51 0 86.02 0 0 Z " fill="#010101" transform="translate(72,17)"/>
<path d="M0 0 C0.97759277 0.00749268 1.95518555 0.01498535 2.96240234 0.02270508 C19.29508328 0.26678171 34.91741676 4.76992317 47.21875 16.125 C60.19271665 30.2370339 64.51768818 46.68336094 64.41455078 65.39868164 C64.41398567 66.80885815 64.41430518 68.21903525 64.41543579 69.62921143 C64.4160064 73.43232861 64.4042997 77.235318 64.39028788 81.03840566 C64.37773155 85.0222147 64.37660617 89.00602712 64.37423706 92.98985291 C64.36803664 100.52255748 64.3516454 108.05520357 64.33153808 115.58788246 C64.30913419 124.1683308 64.29817439 132.74878202 64.28814721 141.32925236 C64.2672778 158.96954141 64.23061965 176.60975034 64.1875 194.25 C53.9575 194.25 43.7275 194.25 33.1875 194.25 C33.17291748 190.21281738 33.15833496 186.17563477 33.14331055 182.01611328 C33.09293337 168.66488981 33.02648166 155.31378673 32.95178509 141.96267891 C32.90689576 133.86933828 32.86746542 125.77604099 32.84106445 117.68261719 C32.81802861 110.62510695 32.78456863 103.56773463 32.73879844 96.5103339 C32.71494118 92.77645212 32.69616348 89.0427063 32.68988609 85.30875015 C32.68266768 81.13158104 32.65216806 76.95488261 32.61987305 72.77783203 C32.62130814 71.55143509 32.62274323 70.32503815 32.6242218 69.06147766 C32.49003478 56.75749781 29.60333364 46.38930209 21.20703125 37.14453125 C11.81174845 28.33077466 0.0354757 27.67916334 -12.16796875 27.9375 C-22.15712435 28.41977667 -31.5961445 32.84734609 -38.5625 40.0625 C-44.48344798 47.40447549 -47.90903588 56.40718782 -47.97071838 65.81817627 C-47.98540161 67.51766922 -47.98540161 67.51766922 -48.00038147 69.25149536 C-48.00613693 70.49011322 -48.0118924 71.72873108 -48.01782227 73.00488281 C-48.03267166 74.96622665 -48.03267166 74.96622665 -48.04782104 76.9671936 C-48.07483276 80.54946764 -48.0958625 84.1317548 -48.11582303 87.71407413 C-48.13770564 91.45904488 -48.16508319 95.20397534 -48.19187927 98.94891357 C-48.24177541 106.03903496 -48.28672565 113.12917875 -48.32990164 120.2193439 C-48.37930034 128.29186102 -48.4342087 136.36433773 -48.48958123 144.43681574 C-48.60335401 161.04117456 -48.70947595 177.64557048 -48.8125 194.25 C-59.0425 194.25 -69.2725 194.25 -79.8125 194.25 C-79.8125 131.22 -79.8125 68.19 -79.8125 3.25 C-69.5825 3.25 -59.3525 3.25 -48.8125 3.25 C-48.4825 13.15 -48.1525 23.05 -47.8125 33.25 C-45.8325 27.805 -45.8325 27.805 -43.8125 22.25 C-36.49541126 11.03046394 -26.27285037 3.6886113 -13.05493164 0.61621094 C-8.71854877 -0.09196264 -4.38345396 -0.04400756 0 0 Z " fill="#020202" transform="translate(358.8125,75.75)"/>
<path d="M0 0 C9.12316701 -0.69029085 18.23209628 -1.12284089 27.3828125 -0.8984375 C28.1500766 -0.89992294 28.9173407 -0.90140839 29.70785522 -0.90293884 C33.92655944 -0.74116759 36.37889831 -0.10695895 39.55224609 2.765625 C41.66672325 5.05880978 43.09833113 7.07588501 44.03125 10.0859375 C46.33881299 16.32308365 50.08858911 21.54900532 53.75 27.0625 C55.13089221 29.21842102 56.50717973 31.37729815 57.87890625 33.5390625 C60.56150814 37.75051342 63.25664785 41.9534022 65.96484375 46.1484375 C67.20573168 48.07812339 68.4466172 50.00781081 69.6875 51.9375 C70.53296387 53.23989624 70.53296387 53.23989624 71.39550781 54.56860352 C81 69.55132116 81 69.55132116 81 74 C81.66 74 82.32 74 83 74 C83.09410156 73.30648437 83.18820312 72.61296875 83.28515625 71.8984375 C85.53024545 62.79539822 92.48869014 54.10488193 97.72436523 46.38134766 C101.20253835 41.23913544 104.56644449 36.03002593 107.89550781 30.79003906 C109.29970069 28.59480668 110.72104045 26.4104495 112.15917969 24.23730469 C115.6142332 18.98504671 118.73915182 14.09668873 120.60058594 8.06030273 C122.44672738 4.65074456 124.76436016 2.14817838 128 0 C130.8863147 -0.84304598 133.62272066 -0.90423487 136.6171875 -0.8984375 C137.81992813 -0.92793236 137.81992813 -0.92793236 139.04696655 -0.95802307 C147.37937885 -1.09728529 155.69462876 -0.62841355 164 0 C162.53225941 3.84212093 160.86375929 6.77555297 158.375 10.0625 C155.58721872 13.81777603 152.89039603 17.59757989 150.3125 21.5 C146.8623359 26.72241636 143.35084699 31.89942849 139.8125 37.0625 C139.2558667 37.87485107 138.6992334 38.68720215 138.12573242 39.52416992 C136.98294623 41.1913798 135.83995971 42.85845237 134.69677734 44.52539062 C132.00383734 48.45282083 129.31427597 52.38256035 126.625 56.3125 C125.83984009 57.45936279 125.83984009 57.45936279 125.03881836 58.62939453 C122.00413677 63.06388773 118.97588564 67.50268368 115.953125 71.9453125 C115.27427246 72.94264404 114.59541992 73.93997559 113.89599609 74.9675293 C112.57518493 76.90853773 111.25516393 78.85008414 109.93603516 80.79223633 C109.33581543 81.67419678 108.7355957 82.55615723 108.1171875 83.46484375 C107.58722168 84.244646 107.05725586 85.02444824 106.51123047 85.82788086 C105.05348833 87.92312025 103.54477157 89.96833354 102 92 C103.75599397 95.83471115 106.08823334 99.26276486 108.4375 102.75 C108.8814209 103.41193359 109.3253418 104.07386719 109.78271484 104.75585938 C116.65427378 114.97769468 123.67162835 125.0980208 130.71362305 135.20288086 C137.4201482 144.82647509 144.08359328 154.47677243 150.67529297 164.17944336 C153.54840785 168.40821543 156.42969114 172.63013777 159.34765625 176.828125 C159.86158936 177.56877197 160.37552246 178.30941895 160.9050293 179.07250977 C161.85526553 180.43970732 162.80836133 181.80492381 163.76489258 183.16772461 C165.57144445 185.76979011 166.99205749 187.97617248 168 191 C158.62675821 191.73504535 149.25939127 192.20402127 139.85546875 191.9921875 C138.67568954 192.00137207 138.67568954 192.00137207 137.47207642 192.01074219 C132.92964797 191.84020546 130.52914089 191.03934582 127.27709961 187.78051758 C125.11618692 185.20468875 123.56315138 182.91598301 122.6484375 179.64453125 C121.02477752 174.74401171 118.53329822 170.99951141 115.5625 166.8125 C114.55548749 165.3167606 113.55313957 163.81787354 112.5546875 162.31640625 C112.00393555 161.49285645 111.45318359 160.66930664 110.88574219 159.82080078 C110.26344727 158.88993652 109.64115234 157.95907227 109 157 C108.63636353 156.45655945 108.27272705 155.9131189 107.89807129 155.35321045 C105.40542153 151.62615368 102.92278597 147.89265292 100.44918823 144.15292358 C99.62324454 142.90720559 98.79451107 141.66333171 97.962677 140.42153931 C83 118.0735481 83 118.0735481 83 112 C82.34 112 81.68 112 81 112 C80.91121582 112.69077637 80.82243164 113.38155273 80.73095703 114.09326172 C79.83965569 117.63762836 78.20926206 120.43414585 76.3046875 123.5078125 C75.91199677 124.15130646 75.51930603 124.79480042 75.11471558 125.45779419 C69.37484511 134.76190043 63.22346938 143.80427634 57.125 152.875 C55.30694286 155.58434738 53.48996859 158.29437924 51.67698669 161.00712585 C50.48649332 162.78045809 49.28754067 164.5481422 48.07997131 166.30989075 C45.24963614 170.46696463 42.62838775 174.58663781 40.34155273 179.0690918 C34.6291617 189.93334277 34.6291617 189.93334277 29.94494629 191.83374023 C24.22502427 193.06183661 18.59185225 192.56113031 12.8125 192.0625 C11.08045209 191.97707284 9.34799629 191.89953241 7.61523438 191.83007812 C3.399954 191.64408981 -0.79546576 191.35205049 -5 191 C-0.67402384 184.0967603 3.78612651 177.3311542 8.5 170.6875 C13.52175546 163.562876 18.47847323 156.39874851 23.375 149.1875 C28.57784055 141.52908151 33.82985998 133.9073889 39.125 126.3125 C40.45186624 124.40497805 41.77868966 122.49742632 43.10546875 120.58984375 C45.68157496 116.88753572 48.26933816 113.19373233 50.86328125 109.50390625 C52.05503698 107.79451443 53.24646008 106.08489064 54.4375 104.375 C54.98744629 103.59938721 55.53739258 102.82377441 56.10400391 102.0246582 C56.60464355 101.30238037 57.1052832 100.58010254 57.62109375 99.8359375 C58.0586499 99.21251465 58.49620605 98.5890918 58.94702148 97.94677734 C60.24890904 95.53980973 60.81085217 93.73937335 61 91 C59.9517029 88.57111658 59.9517029 88.57111658 58.203125 86.26171875 C57.57970215 85.36751221 56.9562793 84.47330566 56.31396484 83.55200195 C55.63285645 82.60671631 54.95174805 81.66143066 54.25 80.6875 C53.55986816 79.70418701 52.86973633 78.72087402 52.15869141 77.70776367 C50.76226258 75.7187681 49.36012128 73.73377025 47.95214844 71.75292969 C45.38562108 68.13359971 42.87800997 64.47586761 40.375 60.8125 C39.49782901 59.5374623 38.62022069 58.26272536 37.7421875 56.98828125 C34.65255713 52.49827422 31.57628479 47.99915656 28.5 43.5 C24.46507383 37.59951384 20.42495495 31.70268102 16.375 25.8125 C15.93696045 25.17425293 15.4989209 24.53600586 15.04760742 23.87841797 C12.66936084 20.41556473 10.27790753 16.96260177 7.87109375 13.51953125 C7.35949707 12.78436279 6.84790039 12.04919434 6.32080078 11.29174805 C5.3347112 9.875182 4.34494832 8.46116409 3.35107422 7.05004883 C0 2.22496892 0 2.22496892 0 0 Z " fill="#020202" transform="translate(685,79)"/>
<path d="M0 0 C9.40981434 7.82550887 14.02137883 17.35387208 15.31338501 29.42723083 C15.77078638 35.40276102 15.74046096 41.39655258 15.76953125 47.38671875 C15.77360678 48.10266897 15.7776823 48.81861919 15.78188133 49.55626488 C15.80261529 53.34374055 15.81697294 57.13118133 15.82641602 60.91870117 C15.83747512 64.79506818 15.87190548 68.67086048 15.91158772 72.54702473 C15.9379261 75.56108042 15.94612277 78.57500222 15.94969749 81.58916283 C15.95451632 83.01669398 15.96599283 84.44422111 15.98473549 85.87163734 C16.1563876 99.80583395 13.50473348 111.93601909 3.6484375 122.2421875 C-6.71676702 131.83508267 -17.87824593 133.75654532 -31.72265625 133.51953125 C-42.41062493 132.81740192 -52.04220121 129.70937478 -59.7265625 122.01171875 C-70.53497222 109.30884607 -71.78175133 94.63948027 -71.76953125 78.50390625 C-71.77381638 77.22469803 -71.7781015 75.94548981 -71.78251648 74.6275177 C-71.78991358 71.93742692 -71.78973578 69.24746751 -71.78442383 66.55737305 C-71.77979192 63.8316193 -71.7867195 61.10631157 -71.80493164 58.38061523 C-72.08065401 16.7762761 -72.08065401 16.7762761 -59.5078125 3.16015625 C-44.29554445 -10.91556303 -16.9088224 -12.23664779 0 0 Z " fill="#FDFDFD" transform="translate(586.46875,111.7265625)"/>
</svg>
